<svg xmlns="http://www.w3.org/2000/svg" version="1.1" xmlns:xlink="http://www.w3.org/1999/xlink" xmlns:svgjs="http://svgjs.dev/svgjs" width="1000" height="707" viewBox="0 0 1000 707"><g transform="matrix(1,0,0,1,-0.6060606060606233,0.000031783492545400804)"><svg viewBox="0 0 396 280" data-background-color="#ffffff" preserveAspectRatio="xMidYMid meet" height="707" width="1000" xmlns="http://www.w3.org/2000/svg" xmlns:xlink="http://www.w3.org/1999/xlink"><g id="tight-bounds" transform="matrix(1,0,0,1,0.2400000000000091,0.000004854338669701974)"><svg viewBox="0 0 395.52 280" height="280" width="395.52"><g><svg viewBox="0 0 395.52 280" height="280" width="395.52"><g><svg viewBox="0 0 395.52 280" height="280" width="395.52"><g><svg viewBox="0 0 395.52 280" height="280" width="395.52"><g><svg viewBox="0 0 395.52 280" height="280" width="395.52"><g transform="matrix(1,0,0,1,81.22880246045696,47.293586941235716)"><svg viewBox="0 0 233.06239507908606 185.41282611752857" height="185.41282611752857" width="233.06239507908606"><g><circle r="82" cx="116.53119753954303" cy="92.70641305876428" fill="#f9c9cb" data-fill-palette-color="accent"></circle><svg xmlns="http://www.w3.org/2000/svg" xmlns:xlink="http://www.w3.org/1999/xlink" version="1.1" x="34.95935926186291" y="34.95935926186291" viewBox="27.102779388427734 7.6060028076171875 45.7952766418457 84.78809356689453" enable-background="new 0 0 100 100" xml:space="preserve" height="115.49410759380275" width="163.14367655536023" class="icon-o-0" data-fill-palette-color="quaternary" id="o-0"><g fill="#ffffff" data-fill-palette-color="quaternary"><path d="M38.262 90.078h5.942c0 0 8.056-49.654-2.972-78.708 0 0-1.354-3.764-2.971-3.764V90.078z" fill="#ffffff" data-fill-palette-color="quaternary"></path><path d="M35.885 90.078h-5.943c0 0-8.056-49.654 2.972-78.708 0 0 1.353-3.764 2.972-3.764V90.078z" fill="#ffffff" data-fill-palette-color="quaternary"></path></g><path d="M60.298 90.078h5.942c0 0 8.058-49.654-2.971-78.708 0 0-1.353-3.764-2.972-3.764V90.078z" fill="#ffffff" data-fill-palette-color="quaternary"></path><path d="M68.164 90.078c0 0 1.65 0.844 2.839 1.967 1.188 1.121 2.576-0.594 1.52-3.203-1.058-2.609-3.189-4.781-3.189-4.781S68.816 87.82 68.164 90.078z" fill="#ffffff" data-fill-palette-color="quaternary"></path></svg></g></svg></g><path d="M62.799 91.546L63.018 90.452C63.06 90.326 63.22 90.31 63.497 90.403V90.403L67.651 91.248C67.918 91.289 68.086 91.321 68.156 91.344 68.225 91.367 68.228 91.473 68.164 91.662 68.099 91.858 68.033 91.972 67.965 92.006 67.898 92.039 67.796 92.061 67.659 92.071 67.523 92.082 67.37 92.097 67.202 92.118 67.028 92.136 66.852 92.158 66.676 92.183V92.183C66.015 92.249 65.307 92.471 64.549 92.848V92.848C62.766 93.778 61.584 95.107 61.005 96.833V96.833C60.657 97.873 60.664 98.969 61.028 100.122 61.392 101.274 62.034 102.004 62.954 102.313 63.874 102.621 64.729 102.715 65.52 102.595 66.314 102.482 67.094 102.239 67.857 101.864 68.619 101.495 69.386 101.037 70.158 100.49 70.924 99.941 71.701 99.378 72.491 98.801V98.801C74.549 97.283 76.213 96.27 77.483 95.764V95.764C79.45 94.958 81.404 94.817 83.345 95.342V95.342C85.469 96.054 86.894 97.439 87.619 99.498 88.343 101.563 88.343 103.677 87.618 105.838V105.838C87.151 107.231 86.639 108.289 86.081 109.014 85.522 109.738 85.128 110.233 84.899 110.5 84.674 110.775 84.537 110.985 84.488 111.13 84.439 111.274 84.415 111.368 84.415 111.41V111.41L84.287 112.387C84.232 112.551 84.069 112.608 83.798 112.56V112.56C80.571 111.877 78.86 111.504 78.664 111.438 78.475 111.375 78.351 111.316 78.293 111.261 78.234 111.206 78.227 111.113 78.271 110.98V110.98C78.389 110.627 78.998 110.474 80.097 110.52V110.52C83.347 110.151 85.485 108.439 86.509 105.382V105.382C86.978 103.983 86.954 102.643 86.437 101.362 85.92 100.082 84.981 99.213 83.62 98.757V98.757C81.439 98.026 78.977 98.648 76.233 100.623V100.623C75.456 101.183 74.365 102.002 72.959 103.08 71.556 104.152 70.246 104.943 69.03 105.454V105.454C67.148 106.26 65.315 106.364 63.531 105.766 61.748 105.168 60.525 103.966 59.861 102.159 59.202 100.361 59.181 98.542 59.798 96.702V96.702C60.117 95.75 60.629 94.755 61.335 93.716 62.045 92.685 62.533 91.962 62.799 91.546ZM95.49 87.462L95.084 87.208C94.999 87.155 94.989 87.078 95.052 86.977V86.977L95.348 86.503C96.031 85.409 96.345 84.379 96.29 83.413 96.237 82.455 95.898 81.781 95.272 81.39V81.39L76.675 69.781C76.444 69.636 76.284 69.603 76.196 69.681 76.108 69.76 76.011 69.859 75.904 69.981V69.981L71.881 76.425C71.449 77.605 71.822 78.79 72.999 79.979V79.979C73.629 80.615 74.035 81.014 74.216 81.174 74.404 81.338 74.47 81.465 74.413 81.555V81.555L74.223 81.86C74.181 81.928 74.137 81.947 74.092 81.919V81.919L73.542 81.576 68.69 77.677C68.385 77.4 68.281 77.183 68.38 77.025 68.478 76.867 68.691 76.765 69.018 76.718 69.35 76.675 69.673 76.403 69.987 75.901V75.901L81.29 57.794C81.589 57.315 81.714 56.989 81.665 56.817 81.616 56.646 81.565 56.481 81.515 56.324 81.469 56.17 81.489 56.026 81.574 55.891 81.662 55.75 81.771 55.693 81.903 55.72 82.041 55.751 82.178 55.794 82.316 55.849V55.849L87.951 58.497 88.5 58.84C88.545 58.868 88.547 58.916 88.505 58.984V58.984L88.315 59.288C88.258 59.378 88.135 59.387 87.945 59.316V59.316C86.716 58.799 85.67 58.503 84.809 58.427 83.938 58.354 83.199 58.633 82.593 59.266V59.266L78.559 65.727C78.497 65.876 78.451 66.008 78.419 66.121 78.387 66.234 78.487 66.363 78.718 66.508V66.508L97.315 78.118C97.941 78.508 98.696 78.517 99.579 78.144 100.468 77.774 101.256 77.04 101.942 75.94V75.94L102.243 75.458C102.299 75.368 102.37 75.349 102.454 75.402V75.402L102.86 75.656C102.95 75.712 102.967 75.785 102.911 75.875V75.875L95.71 87.411C95.653 87.501 95.58 87.518 95.49 87.462ZM108.538 67.741V67.741L108.16 67.344C108.086 67.267 108.088 67.192 108.165 67.119V67.119L108.476 66.823C108.853 66.409 109.248 66.001 109.663 65.597 110.082 65.189 110.416 64.774 110.667 64.353V64.353C111.231 63.375 111.078 62.428 110.208 61.514V61.514L95.815 46.391C94.917 45.447 93.786 45.377 92.421 46.18V46.18C92.04 46.415 91.664 46.662 91.296 46.921V46.921L90.993 47.21C90.916 47.283 90.843 47.284 90.774 47.211V47.211L90.444 46.865C90.371 46.788 90.373 46.713 90.45 46.639V46.639L104.085 33.663C104.258 33.498 104.413 33.41 104.549 33.399 104.686 33.388 104.865 33.48 105.086 33.673V33.673L109.298 37.578C109.389 37.675 109.363 37.791 109.219 37.929 109.074 38.066 108.927 38.124 108.777 38.101V38.101C108.632 38.065 108.225 37.787 107.557 37.267 106.892 36.753 106.252 36.408 105.636 36.233 105.01 36.057 104.348 36.205 103.65 36.677V36.677L97.671 42.368C97.545 42.487 97.54 42.607 97.655 42.727V42.727L104.714 50.144C104.805 50.24 104.899 50.243 104.995 50.151V50.151L109.957 45.429C111.238 44.21 111.168 42.855 109.747 41.362V41.362C109.674 41.285 109.676 41.21 109.753 41.137V41.137L110.099 40.807C110.176 40.733 110.252 40.735 110.325 40.812V40.812L116.167 46.951C116.241 47.028 116.239 47.103 116.162 47.176V47.176L115.815 47.506C115.738 47.58 115.663 47.578 115.589 47.501V47.501C114.242 46.085 113.054 45.661 112.024 46.228V46.228C111.743 46.385 111.473 46.588 111.213 46.835V46.835L106.295 51.516C106.198 51.608 106.196 51.702 106.288 51.798V51.798L112.934 58.782C113.617 59.499 114.331 59.589 115.078 59.053V59.053C115.298 58.899 115.514 58.721 115.726 58.519V58.519L120.5 53.976C121.482 53.041 121.835 51.879 121.559 50.49V50.49C121.358 49.498 120.918 48.559 120.239 47.672V47.672C120.012 47.375 120.025 47.105 120.281 46.862V46.862C120.396 46.752 120.514 46.76 120.633 46.885V46.885L124.748 52.149C124.818 52.339 124.815 52.47 124.738 52.543V52.543L108.763 67.747C108.686 67.82 108.611 67.819 108.538 67.742ZM140.239 42.671L130.061 48.708C129.969 48.762 129.856 48.675 129.72 48.447V48.447L129.598 48.241C129.547 48.155 129.579 48.078 129.693 48.01 129.802 47.946 129.947 47.813 130.13 47.612 130.312 47.412 130.453 47.266 130.554 47.175V47.175C131.553 46.227 131.739 45.225 131.111 44.167V44.167L120.445 26.186C119.828 25.145 119.241 24.593 118.685 24.529 118.124 24.468 117.337 24.737 116.325 25.338V25.338L115.562 25.79C115.322 25.933 115.122 25.87 114.963 25.601V25.601C114.868 25.441 114.885 25.3 115.013 25.177V25.177L115.133 25.106 124.532 19.182 126.256 18.16C128.367 17.093 130.493 16.821 132.634 17.344 134.774 17.876 136.392 19.068 137.491 20.92 138.593 22.778 138.929 24.854 138.498 27.15V27.15C138.311 28.165 137.979 29.096 137.5 29.944 137.019 30.786 136.43 31.422 135.733 31.85V31.85L130.501 34.676 130.363 34.757C130.198 34.856 130.162 34.985 130.257 35.145V35.145L134.408 42.142C134.781 42.771 135.222 43.131 135.732 43.222 136.252 43.316 137.111 43.123 138.31 42.644V42.644C138.473 42.578 138.735 42.473 139.097 42.328 139.453 42.186 139.688 42.081 139.803 42.014 139.917 41.946 140 41.955 140.051 42.04V42.04L140.295 42.452C140.349 42.543 140.33 42.616 140.239 42.671ZM123.643 20.869C123.515 20.953 123.376 21.043 123.225 21.14 123.074 21.238 122.88 21.36 122.643 21.509 122.412 21.653 122.351 21.817 122.46 22V22L128.975 32.984 129.306 33.483C129.48 33.697 129.661 33.756 129.851 33.659V33.659L131.653 32.729C133.476 31.648 134.585 30.163 134.98 28.275 135.371 26.381 135.018 24.508 133.919 22.656 132.817 20.798 131.419 19.68 129.726 19.301 128.037 18.928 126.291 19.275 124.491 20.343V20.343C124.331 20.438 124.184 20.529 124.05 20.616 123.916 20.703 123.781 20.788 123.643 20.869ZM171.676 5.643L177.332 25.749C177.814 27.464 179.256 28.025 181.658 27.432V27.432C181.76 27.403 181.825 27.437 181.852 27.533V27.533L181.982 27.993C182.01 28.096 181.974 28.161 181.871 28.19V28.19L169.75 31.6C169.647 31.629 169.582 31.592 169.553 31.489V31.489L169.424 31.029C169.397 30.933 169.7 30.796 170.333 30.618 170.967 30.439 171.65 30.095 172.383 29.585V29.585C173.516 28.825 173.946 27.961 173.674 26.995V26.995L171.118 17.907C171.082 17.779 171.039 17.701 170.99 17.673 170.941 17.646 170.852 17.65 170.724 17.686V17.686L155.714 21.908C155.586 21.944 155.508 21.987 155.481 22.036 155.453 22.085 155.457 22.174 155.493 22.302V22.302L158.104 31.582C158.534 33.112 159.872 33.56 162.118 32.929V32.929C162.22 32.9 162.285 32.933 162.312 33.029V33.029L162.441 33.49C162.47 33.592 162.44 33.656 162.35 33.681V33.681L151.832 36.64C151.729 36.669 151.664 36.632 151.635 36.53V36.53L151.505 36.069C151.478 35.973 151.593 35.889 151.849 35.817V35.817C153.967 35.221 154.77 34.015 154.259 32.198V32.198L148.538 11.861C148.119 10.37 147.014 9.829 145.222 10.236V10.236C144.958 10.303 144.812 10.286 144.783 10.183V10.183L144.68 9.819C144.652 9.716 144.682 9.652 144.772 9.627V9.627L154.34 6.936C154.436 6.909 154.499 6.946 154.527 7.049V7.049L154.63 7.413C154.652 7.49 154.544 7.562 154.307 7.628V7.628C152.49 8.14 151.834 9.291 152.337 11.082V11.082L154.813 19.883C154.849 20.011 154.892 20.089 154.941 20.116 154.99 20.144 155.079 20.14 155.207 20.104V20.104L170.217 15.882C170.345 15.846 170.423 15.803 170.45 15.754 170.478 15.705 170.474 15.616 170.438 15.488V15.488L167.876 6.38C167.818 6.272 167.772 6.171 167.738 6.077 167.705 5.983 167.64 5.839 167.544 5.645V5.645C167.334 5.241 166.784 5.016 165.894 4.97 165.004 4.923 164.034 5.01 162.984 5.229V5.229C162.882 5.258 162.816 5.221 162.788 5.119V5.119L162.685 4.754C162.656 4.652 162.687 4.588 162.776 4.563V4.563L173.775 1.469C173.877 1.44 173.943 1.477 173.972 1.579V1.579L174.074 1.944C174.096 2.021 173.985 2.093 173.742 2.162V2.162C171.861 2.691 171.172 3.851 171.676 5.643ZM184.862 27.883V27.883L184.859 27.335C184.858 27.229 184.911 27.175 185.017 27.175V27.175L185.446 27.172C186.004 27.128 186.572 27.102 187.15 27.091 187.735 27.081 188.263 27.008 188.734 26.872V26.872C189.815 26.546 190.352 25.752 190.344 24.489V24.489L190.212 3.613C190.204 2.31 189.428 1.484 187.884 1.135V1.135C187.444 1.044 187.002 0.967 186.556 0.904V0.904L186.137 0.906C186.031 0.907 185.978 0.858 185.977 0.758V0.758L185.974 0.279C185.973 0.173 186.026 0.12 186.132 0.119V0.119L204.955 0C205.194-0.001 205.367 0.041 205.474 0.126 205.581 0.212 205.649 0.401 205.677 0.693V0.693L206.072 6.424C206.073 6.557 205.974 6.624 205.774 6.625 205.575 6.626 205.428 6.567 205.335 6.448V6.448C205.254 6.322 205.148 5.841 205.016 5.005 204.885 4.175 204.655 3.485 204.325 2.935 203.99 2.379 203.406 2.034 202.574 1.899V1.899L194.319 1.952C194.147 1.953 194.061 2.036 194.062 2.202V2.202L194.126 12.441C194.127 12.574 194.194 12.64 194.327 12.639V12.639L201.176 12.596C202.944 12.585 203.821 11.549 203.808 9.489V9.489C203.808 9.382 203.861 9.329 203.967 9.328V9.328L204.446 9.325C204.552 9.325 204.605 9.377 204.606 9.484V9.484L204.66 17.958C204.66 18.064 204.607 18.118 204.501 18.118V18.118L204.023 18.121C203.916 18.122 203.863 18.069 203.862 17.963V17.963C203.85 16.009 203.274 14.886 202.136 14.594V14.594C201.823 14.516 201.487 14.478 201.128 14.481V14.481L194.339 14.524C194.206 14.524 194.14 14.591 194.141 14.724V14.724L194.202 24.365C194.208 25.355 194.667 25.911 195.578 26.031V26.031C195.844 26.069 196.123 26.087 196.416 26.086V26.086L203.006 26.044C204.362 26.035 205.415 25.431 206.165 24.229V24.229C206.698 23.369 207.02 22.383 207.133 21.272V21.272C207.171 20.9 207.366 20.712 207.718 20.71V20.71C207.877 20.709 207.958 20.795 207.959 20.968V20.968L207.353 27.622C207.274 27.808 207.182 27.902 207.075 27.903V27.903L185.022 28.042C184.916 28.043 184.863 27.99 184.862 27.883ZM222.514 31.249L212.568 28.577C212.466 28.549 212.428 28.484 212.456 28.382V28.382L212.58 27.919C212.606 27.823 212.683 27.792 212.811 27.827V27.827L213.254 27.946C213.954 28.134 214.449 28.198 214.74 28.138V28.138C215.808 27.93 216.619 26.795 217.172 24.735V24.735L222.51 4.861C222.74 4.008 222.045 3.274 220.428 2.661V2.661C220.072 2.524 219.82 2.436 219.673 2.396 219.525 2.356 219.464 2.288 219.49 2.192V2.192L219.614 1.73C219.642 1.627 219.707 1.59 219.81 1.617V1.617L226.81 3.497 239.563 28.426C239.61 28.508 239.642 28.568 239.659 28.607 239.676 28.646 239.713 28.673 239.771 28.689 239.829 28.704 239.873 28.654 239.904 28.538V28.538L243.442 15.367C244.123 12.831 244.359 11.119 244.151 10.23 243.937 9.333 243.192 8.713 241.915 8.37V8.37L240.942 8.109C240.84 8.081 240.801 8.019 240.827 7.923V7.923L240.951 7.461C240.979 7.358 241.044 7.321 241.147 7.348V7.348L251.093 10.02C251.196 10.048 251.233 10.113 251.205 10.215V10.215L251.081 10.678C251.055 10.774 250.853 10.771 250.474 10.669 250.102 10.569 249.427 10.622 248.45 10.828 247.468 11.025 246.891 11.444 246.718 12.086V12.086L240.439 35.464C240.363 35.747 240.273 35.94 240.17 36.043 240.06 36.144 239.861 36.156 239.572 36.078 239.283 36 239.084 35.885 238.973 35.731 238.87 35.58 238.751 35.369 238.617 35.099V35.099L224.766 7.955C224.678 7.794 224.583 7.7 224.481 7.672V7.672C224.416 7.655 224.367 7.71 224.333 7.839V7.839L219.209 26.913C218.897 28.075 219.609 29.088 221.345 29.954V29.954C221.824 30.193 222.199 30.348 222.468 30.421 222.738 30.493 222.86 30.578 222.834 30.674V30.674L222.71 31.136C222.682 31.239 222.617 31.276 222.514 31.249ZM249.652 37.781C249.965 37.15 250.462 36.714 251.145 36.474 251.825 36.224 252.483 36.257 253.121 36.573V36.573C253.752 36.885 254.181 37.383 254.406 38.066 254.635 38.743 254.588 39.406 254.267 40.055 253.942 40.71 253.451 41.142 252.792 41.349 252.13 41.563 251.477 41.511 250.834 41.192V41.192C250.208 40.882 249.778 40.395 249.544 39.73 249.3 39.068 249.337 38.419 249.652 37.781ZM275.073 23.424L275.421 22.988C275.487 22.905 275.562 22.896 275.645 22.962V22.962L275.988 23.236 281.041 27.085C281.661 27.545 282.321 28.054 283.023 28.613V28.613L284.956 30.154C286.75 31.584 288.044 32.726 288.841 33.582 289.638 34.438 290.4 35.305 291.128 36.183 291.856 37.051 292.458 38.199 292.936 39.625 293.41 41.057 293.648 42.513 293.65 43.993V43.993C293.628 47.155 292.721 49.861 290.927 52.112 289.137 54.357 286.94 55.903 284.335 56.751V56.751C280.583 57.993 276.784 57.732 272.938 55.967V55.967C271.715 55.4 270.569 54.69 269.498 53.837V53.837L258.209 44.839C258.125 44.773 258.117 44.698 258.183 44.615V44.615L258.525 44.186C258.591 44.103 258.666 44.095 258.749 44.161V44.161L259.092 44.434C260.969 45.93 262.385 46.077 263.342 44.877V44.877L276.863 27.912C277.323 27.335 277.45 26.722 277.245 26.074 277.039 25.425 276.656 24.877 276.094 24.43V24.43L275.104 23.641C275.021 23.574 275.01 23.502 275.073 23.424ZM285.947 32.143L281.737 28.787C281.482 28.584 281.245 28.62 281.026 28.896V28.896L265.932 47.833C265.323 48.597 265.724 49.567 267.133 50.741V50.741C267.546 51.087 267.984 51.444 268.446 51.813V51.813C271.742 54.44 275.067 55.577 278.424 55.227 281.781 54.885 284.684 53.179 287.132 50.107 289.58 47.035 290.704 43.838 290.504 40.517 290.304 37.196 288.785 34.404 285.947 32.142ZM284.104 66.171V66.171L284.546 65.847C284.632 65.784 284.706 65.795 284.769 65.881V65.881L285.023 66.227C285.385 66.654 285.739 67.098 286.086 67.561 286.438 68.029 286.806 68.414 287.192 68.716V68.716C288.09 69.401 289.048 69.371 290.067 68.624V68.624L306.907 56.286C307.958 55.516 308.172 54.403 307.551 52.947V52.947C307.366 52.538 307.17 52.134 306.96 51.736V51.736L306.712 51.398C306.65 51.312 306.658 51.24 306.739 51.181V51.181L307.125 50.898C307.211 50.835 307.285 50.847 307.348 50.933V50.933L318.473 66.116C318.614 66.309 318.681 66.474 318.674 66.611 318.668 66.748 318.554 66.914 318.334 67.108V67.108L313.922 70.785C313.815 70.864 313.702 70.823 313.584 70.662 313.466 70.501 313.428 70.348 313.47 70.202V70.202C313.524 70.063 313.852 69.695 314.453 69.098 315.049 68.506 315.473 67.915 315.725 67.326 315.979 66.728 315.917 66.053 315.538 65.3V65.3L310.66 58.641C310.557 58.501 310.439 58.481 310.305 58.579V58.579L302.046 64.631C301.939 64.709 301.924 64.802 302.003 64.909V64.909L306.051 70.434C307.096 71.86 308.449 71.965 310.111 70.747V70.747C310.197 70.684 310.272 70.695 310.334 70.781V70.781L310.617 71.167C310.68 71.253 310.669 71.327 310.583 71.39V71.39L303.747 76.399C303.661 76.462 303.587 76.45 303.524 76.364V76.364L303.241 75.978C303.178 75.893 303.19 75.818 303.276 75.755V75.755C304.852 74.6 305.425 73.476 304.994 72.383V72.383C304.874 72.084 304.708 71.789 304.496 71.5V71.5L300.483 66.023C300.404 65.916 300.312 65.901 300.204 65.98V65.98L292.427 71.678C291.629 72.263 291.447 72.96 291.884 73.77V73.77C292.009 74.008 292.158 74.245 292.33 74.48V74.48L296.225 79.796C297.027 80.89 298.134 81.389 299.547 81.293V81.293C300.556 81.221 301.544 80.905 302.51 80.345V80.345C302.834 80.157 303.1 80.206 303.308 80.49V80.49C303.403 80.618 303.38 80.734 303.241 80.836V80.836L297.494 84.243C297.296 84.289 297.166 84.269 297.103 84.183V84.183L284.07 66.394C284.007 66.308 284.018 66.234 284.104 66.171ZM336.063 105.303L335.618 105.479C335.525 105.516 335.459 105.485 335.42 105.386V105.386L335.149 104.7C334.225 103.264 332.495 102.621 329.961 102.772V102.772C329.289 102.808 328.637 102.83 328.004 102.837V102.837L305.609 103.321C305.256 103.332 305.017 103.269 304.892 103.133 304.769 103.003 304.651 102.796 304.539 102.511V102.511L304.198 101.649C304.081 101.352 304.141 101.107 304.379 100.913V100.913L324.061 81.916C324.877 81.144 325.092 79.941 324.704 78.307V78.307C324.682 78.216 324.66 78.142 324.638 78.087 324.616 78.031 324.652 77.985 324.744 77.948V77.948L325.189 77.772C325.288 77.733 325.357 77.763 325.396 77.862V77.862L329.685 88.721C329.724 88.82 329.694 88.889 329.595 88.928V88.928L329.15 89.103C329.057 89.14 328.991 89.109 328.952 89.01V89.01L328.846 88.741C328.675 88.452 328.484 88.113 328.273 87.724V87.724C327.455 86.232 326.517 85.695 325.46 86.112V86.112C325.133 86.242 324.811 86.469 324.497 86.793V86.793L310.276 100.481C310.077 100.702 310.134 100.827 310.445 100.854V100.854L330.325 100.409C330.6 100.401 330.908 100.329 331.248 100.195 331.588 100.061 331.857 99.793 332.056 99.393 332.259 98.984 332.328 98.625 332.263 98.315 332.2 98.011 332.148 97.77 332.107 97.594 332.066 97.417 332.007 97.151 331.931 96.795 331.857 96.445 331.798 96.215 331.754 96.104 331.71 95.992 331.735 95.918 331.827 95.882V95.882L332.272 95.706C332.371 95.667 332.44 95.697 332.479 95.796V95.796L336.153 105.096C336.192 105.195 336.162 105.264 336.063 105.303ZM98.81 186.676L99.309 187.718C99.352 187.843 99.231 187.954 98.948 188.05V188.05L95.008 189.937C94.766 190.075 94.611 190.155 94.542 190.178 94.473 190.202 94.405 190.116 94.339 189.921 94.271 189.719 94.254 189.585 94.287 189.517 94.321 189.45 94.389 189.371 94.491 189.28 94.598 189.181 94.715 189.071 94.843 188.951 94.977 188.828 95.107 188.704 95.233 188.577V188.577C95.733 188.107 96.176 187.484 96.559 186.709V186.709C97.448 184.831 97.593 183.004 96.993 181.228V181.228C96.632 180.158 95.945 179.264 94.931 178.546 93.909 177.825 92.926 177.624 91.981 177.943 91.036 178.261 90.275 178.718 89.697 179.313 89.123 179.899 88.638 180.582 88.242 181.361 87.845 182.14 87.502 182.993 87.211 183.919 86.922 184.851 86.631 185.798 86.338 186.759V186.759C85.599 189.289 84.869 191.156 84.146 192.36V192.36C83.026 194.239 81.507 195.569 79.589 196.35V196.35C77.404 197.087 75.372 196.836 73.495 195.596 71.624 194.355 70.312 192.619 69.56 190.39V190.39C69.078 188.96 68.84 187.778 68.847 186.843 68.852 185.901 68.862 185.245 68.878 184.875 68.902 184.509 68.889 184.254 68.84 184.109 68.789 183.958 68.751 183.866 68.726 183.832V183.832L68.209 182.954C68.151 182.784 68.252 182.635 68.51 182.506V182.506C71.577 181.057 73.212 180.298 73.413 180.23 73.615 180.162 73.756 180.132 73.836 180.14 73.915 180.149 73.98 180.225 74.029 180.37V180.37C74.15 180.729 73.747 181.229 72.82 181.872V181.872C70.374 184.205 69.681 186.944 70.741 190.086V190.086C71.228 191.528 72.084 192.611 73.31 193.333 74.532 194.065 75.842 194.194 77.24 193.723V193.723C79.482 192.966 81.117 190.92 82.145 187.585V187.585C82.432 186.647 82.816 185.3 83.297 183.545 83.778 181.791 84.36 180.325 85.043 179.147V179.147C86.087 177.315 87.526 176.089 89.358 175.471 91.197 174.85 92.949 175.073 94.613 176.139 96.278 177.205 97.43 178.686 98.069 180.581V180.581C98.399 181.557 98.596 182.694 98.662 183.99 98.725 185.28 98.775 186.176 98.81 186.676ZM80.449 211.768L80.863 211.509C80.959 211.449 81.038 211.469 81.102 211.571V211.571L81.403 212.053C82.112 213.185 82.924 213.943 83.838 214.328 84.75 214.706 85.526 214.694 86.169 214.292V214.292L105.302 202.318C105.539 202.17 105.644 202.037 105.618 201.92 105.583 201.801 105.534 201.667 105.472 201.518V201.518L101.32 194.884C100.419 193.958 99.153 193.77 97.521 194.321V194.321C96.648 194.616 96.095 194.81 95.862 194.901 95.626 195.001 95.481 195.006 95.424 194.916V194.916L95.228 194.603C95.186 194.535 95.187 194.488 95.233 194.459V194.459L95.799 194.105 101.593 191.373C101.996 191.215 102.246 191.215 102.345 191.372 102.447 191.536 102.444 191.781 102.335 192.108 102.222 192.429 102.328 192.849 102.653 193.367V193.367L114.315 212.002C114.625 212.498 114.869 212.762 115.045 212.792 115.226 212.82 115.401 212.848 115.568 212.877 115.737 212.896 115.867 212.979 115.959 213.126 116.047 213.267 116.044 213.394 115.951 213.507 115.866 213.623 115.766 213.733 115.651 213.836V213.836L110.656 217.844 110.089 218.199C110.044 218.227 110.001 218.207 109.958 218.14V218.14L109.763 217.827C109.706 217.737 109.752 217.622 109.9 217.482V217.482C110.938 216.574 111.688 215.736 112.149 214.969 112.601 214.2 112.674 213.39 112.369 212.538V212.538L108.206 205.887C108.099 205.766 108 205.664 107.908 205.58 107.814 205.505 107.649 205.542 107.412 205.69V205.69L88.279 217.664C87.637 218.066 87.288 218.763 87.234 219.753 87.176 220.738 87.501 221.797 88.21 222.929V222.929L88.522 223.428C88.579 223.518 88.559 223.593 88.463 223.653V223.653L88.049 223.912C87.959 223.969 87.886 223.952 87.829 223.862V223.862L80.398 211.988C80.342 211.898 80.359 211.824 80.449 211.768ZM96.14 234.8V234.8L96.538 234.381C96.611 234.304 96.689 234.305 96.771 234.382V234.382L97.096 234.691C97.538 235.056 97.976 235.44 98.409 235.842 98.847 236.25 99.293 236.572 99.746 236.81V236.81C100.779 237.343 101.745 237.137 102.642 236.192V236.192L117.441 220.616C118.365 219.643 118.38 218.474 117.485 217.11V217.11C117.221 216.732 116.946 216.36 116.659 215.996V215.996L116.349 215.701C116.267 215.623 116.265 215.543 116.342 215.461V215.461L116.679 215.107C116.752 215.03 116.83 215.03 116.912 215.108V215.108L130.963 228.458C131.141 228.627 131.239 228.78 131.256 228.915 131.274 229.061 131.19 229.251 131.003 229.486V229.486L127.191 234.019C127.1 234.116 126.982 234.095 126.837 233.958 126.688 233.816 126.62 233.67 126.635 233.519V233.519C126.674 233.363 126.94 232.928 127.434 232.215 127.933 231.506 128.254 230.831 128.398 230.187 128.541 229.535 128.357 228.86 127.845 228.164V228.164L121.68 222.306C121.55 222.182 121.423 222.186 121.299 222.316V222.316L114.041 229.956C113.949 230.052 113.954 230.148 114.055 230.244V230.244L119.165 235.099C120.486 236.354 121.876 236.212 123.336 234.675V234.675C123.41 234.598 123.487 234.598 123.569 234.676V234.676L123.923 235.013C124 235.086 124.002 235.161 123.929 235.238V235.238L117.914 241.57C117.84 241.647 117.765 241.649 117.688 241.576V241.576L117.334 241.239C117.252 241.161 117.248 241.084 117.321 241.007V241.007C118.708 239.547 119.085 238.301 118.452 237.269V237.269C118.271 236.986 118.048 236.719 117.783 236.468V236.468L112.716 231.654C112.615 231.558 112.519 231.558 112.427 231.654V231.654L105.588 238.853C104.887 239.59 104.831 240.335 105.419 241.086V241.086C105.585 241.298 105.776 241.507 105.992 241.713V241.713L110.915 246.389C111.931 247.355 113.145 247.656 114.555 247.291V247.291C115.569 247.034 116.515 246.535 117.394 245.793V245.793C117.684 245.546 117.961 245.548 118.227 245.8V245.8C118.347 245.915 118.348 246.035 118.229 246.16V246.16L113.02 250.658C112.829 250.743 112.693 250.747 112.611 250.669V250.669L96.153 235.033C96.071 234.955 96.067 234.878 96.14 234.8ZM131.069 262.733L120.584 256.509C120.493 256.454 120.516 256.31 120.655 256.076V256.076L120.778 255.87C120.835 255.773 120.924 255.76 121.044 255.831 121.158 255.899 121.35 255.966 121.62 256.034 121.889 256.101 122.088 256.157 122.215 256.202V256.202C123.569 256.642 124.57 256.317 125.218 255.225V255.225L136.206 236.716C136.844 235.641 137.051 234.837 136.827 234.302 136.609 233.771 135.98 233.196 134.94 232.579V232.579L134.151 232.11C133.905 231.965 133.866 231.752 134.032 231.472V231.472C134.13 231.306 134.264 231.25 134.433 231.304V231.304L134.562 231.38 144.553 236.952 146.319 238C148.326 239.385 149.621 241.174 150.205 243.368 150.783 245.558 150.503 247.611 149.367 249.525 148.234 251.434 146.523 252.761 144.234 253.504V253.504C143.223 253.84 142.221 253.998 141.227 253.98 140.224 253.964 139.356 253.747 138.623 253.327V253.327L133.486 249.988 133.349 249.907C133.172 249.802 133.034 249.832 132.936 249.998V249.998L128.661 257.199C128.278 257.845 128.173 258.424 128.348 258.938 128.517 259.447 129.114 260.127 130.141 260.976V260.976C130.282 261.09 130.505 261.273 130.812 261.525 131.124 261.78 131.338 261.941 131.452 262.009 131.572 262.08 131.603 262.165 131.545 262.262V262.262L131.296 262.682C131.242 262.773 131.166 262.79 131.069 262.733ZM142.583 236.988C142.442 236.913 142.29 236.83 142.127 236.741 141.964 236.651 141.757 236.537 141.508 236.397 141.259 236.256 141.08 236.278 140.972 236.461V236.461L134.259 247.769 133.986 248.326C133.875 248.592 133.907 248.785 134.083 248.905V248.905L135.814 250.071C137.694 251.187 139.587 251.457 141.491 250.879 143.389 250.298 144.905 249.053 146.039 247.144 147.172 245.235 147.493 243.424 147.003 241.71 146.507 239.994 145.33 238.584 143.473 237.482V237.482C143.313 237.387 143.16 237.3 143.013 237.22 142.873 237.145 142.729 237.067 142.583 236.988ZM180.586 253.855L174.755 274.554C174.257 276.32 175.22 277.585 177.642 278.35V278.35C177.751 278.381 177.79 278.451 177.759 278.559V278.559L177.627 279.029C177.598 279.132 177.529 279.168 177.42 279.137V279.137L164.945 275.623C164.843 275.594 164.806 275.528 164.835 275.426V275.426L164.967 274.956C164.998 274.847 165.34 274.885 165.992 275.069 166.645 275.252 167.431 275.318 168.35 275.267V275.267C169.746 275.211 170.585 274.684 170.866 273.686V273.686L173.502 264.33C173.538 264.202 173.542 264.113 173.515 264.064 173.489 264.009 173.412 263.963 173.284 263.927V263.927L157.815 259.569C157.687 259.533 157.597 259.532 157.546 259.566 157.497 259.594 157.455 259.671 157.419 259.799V259.799L154.726 269.357C154.285 270.925 155.222 272.035 157.538 272.687V272.687C157.64 272.716 157.676 272.785 157.645 272.893V272.893L157.513 273.364C157.484 273.466 157.425 273.505 157.335 273.479V273.479L146.501 270.427C146.399 270.399 146.362 270.333 146.391 270.231V270.231L146.523 269.76C146.554 269.652 146.7 269.634 146.963 269.708V269.708C149.144 270.323 150.498 269.696 151.024 267.828V267.828L156.923 246.889C157.353 245.359 156.673 244.294 154.881 243.693V243.693C154.61 243.603 154.489 243.503 154.52 243.394V243.394L154.625 243.02C154.654 242.918 154.713 242.879 154.803 242.904V242.904L164.658 245.681C164.761 245.709 164.798 245.775 164.769 245.877V245.877L164.663 246.252C164.642 246.328 164.506 246.332 164.257 246.261V246.261C162.388 245.735 161.194 246.396 160.673 248.245V248.245L158.121 257.304C158.084 257.439 158.078 257.53 158.106 257.58 158.134 257.629 158.211 257.671 158.339 257.707V257.707L173.809 262.065C173.937 262.101 174.025 262.105 174.074 262.078 174.124 262.05 174.167 261.969 174.205 261.835V261.835L176.846 252.459C176.853 252.337 176.867 252.224 176.89 252.119 176.91 252.022 176.931 251.862 176.952 251.64V251.64C176.987 251.173 176.625 250.681 175.866 250.164 175.108 249.646 174.208 249.199 173.168 248.823V248.823C173.065 248.794 173.029 248.726 173.06 248.617V248.617L173.165 248.243C173.194 248.14 173.254 248.102 173.343 248.127V248.127L184.667 251.317C184.776 251.347 184.815 251.414 184.787 251.516V251.516L184.681 251.89C184.66 251.967 184.524 251.97 184.275 251.9V251.9C182.336 251.354 181.106 252.006 180.586 253.854ZM184.384 279.693V279.693L184.388 279.115C184.388 279.008 184.445 278.955 184.558 278.956V278.956L185.007 278.959C185.579 278.923 186.16 278.903 186.752 278.901 187.35 278.898 187.896 278.828 188.388 278.692V278.692C189.507 278.373 190.071 277.563 190.079 276.26V276.26L190.218 254.776C190.226 253.433 189.438 252.571 187.852 252.188V252.188C187.4 252.092 186.945 252.009 186.487 251.94V251.94L186.059 251.937C185.946 251.936 185.889 251.88 185.89 251.767V251.767L185.893 251.278C185.894 251.172 185.951 251.119 186.064 251.12V251.12L205.445 251.245C205.691 251.246 205.866 251.291 205.972 251.378 206.085 251.472 206.153 251.668 206.178 251.967V251.967L206.499 257.882C206.498 258.015 206.398 258.08 206.198 258.079 205.992 258.078 205.843 258.017 205.751 257.897V257.897C205.672 257.757 205.569 257.257 205.441 256.399 205.321 255.541 205.093 254.828 204.757 254.261 204.415 253.687 203.819 253.321 202.97 253.163V253.163L194.466 253.108C194.286 253.107 194.196 253.196 194.195 253.376V253.376L194.127 263.913C194.126 264.046 194.195 264.113 194.335 264.114V264.114L201.383 264.16C203.204 264.171 204.122 263.117 204.136 260.997V260.997C204.136 260.891 204.193 260.838 204.306 260.839V260.839L204.795 260.842C204.901 260.842 204.954 260.896 204.953 261.002V261.002L204.897 269.736C204.896 269.842 204.842 269.895 204.736 269.894V269.894L204.248 269.891C204.135 269.89 204.078 269.837 204.079 269.73V269.73C204.092 267.716 203.515 266.55 202.347 266.23V266.23C202.022 266.148 201.677 266.106 201.311 266.103V266.103L194.322 266.058C194.183 266.057 194.113 266.123 194.112 266.256V266.256L194.048 276.186C194.041 277.203 194.509 277.784 195.452 277.93V277.93C195.718 277.971 196 277.993 196.299 277.995V277.995L203.088 278.039C204.491 278.048 205.581 277.437 206.36 276.206V276.206C206.924 275.325 207.273 274.314 207.407 273.172V273.172C207.449 272.793 207.653 272.605 208.019 272.607V272.607C208.185 272.608 208.267 272.695 208.266 272.868V272.868L207.544 279.713C207.463 279.905 207.366 280.001 207.253 280V280L184.552 279.854C184.439 279.853 184.383 279.799 184.384 279.693ZM227.05 276.041L216.815 278.789C216.712 278.817 216.647 278.779 216.62 278.676V278.676L216.493 278.205C216.464 278.095 216.513 278.024 216.641 277.989V277.989L217.094 277.868C217.819 277.673 218.296 277.476 218.525 277.277V277.277C219.367 276.542 219.502 275.112 218.932 272.987V272.987L213.437 252.526C213.203 251.653 212.209 251.359 210.455 251.644V251.644C210.065 251.707 209.794 251.76 209.64 251.801 209.492 251.841 209.404 251.806 209.374 251.697V251.697L209.248 251.225C209.22 251.122 209.258 251.057 209.36 251.03V251.03L216.563 249.096 240.798 264.73C240.88 264.777 240.938 264.813 240.972 264.838 241.006 264.864 241.052 264.869 241.11 264.853 241.174 264.836 241.191 264.769 241.16 264.654V264.654L237.516 251.087C236.815 248.474 236.139 246.829 235.489 246.15 234.843 245.463 233.862 245.296 232.546 245.65V245.65L231.545 245.919C231.442 245.946 231.376 245.905 231.347 245.796V245.796L231.22 245.325C231.193 245.222 231.23 245.157 231.333 245.129V245.129L241.568 242.381C241.671 242.353 241.736 242.391 241.764 242.493V242.493L241.89 242.965C241.92 243.074 241.742 243.18 241.357 243.284 240.972 243.387 240.396 243.779 239.629 244.46 238.863 245.147 238.569 245.818 238.745 246.473V246.473L245.211 270.554C245.289 270.843 245.306 271.059 245.261 271.202 245.212 271.352 245.04 271.468 244.745 271.547 244.45 271.626 244.215 271.624 244.041 271.54 243.862 271.464 243.647 271.339 243.394 271.166V271.166L217.054 254.115C216.883 254.016 216.746 253.981 216.643 254.008V254.008C216.579 254.026 216.565 254.102 216.601 254.236V254.236L221.876 273.879C222.198 275.079 223.354 275.615 225.343 275.487V275.487C225.897 275.449 226.312 275.392 226.588 275.318 226.864 275.244 227.017 275.262 227.046 275.371V275.371L227.173 275.842C227.2 275.945 227.159 276.011 227.05 276.04ZM255.653 264.767C255.33 264.111 255.282 263.427 255.509 262.715 255.733 262.012 256.176 261.497 256.838 261.171V261.171C257.482 260.854 258.154 260.812 258.854 261.045 259.551 261.287 260.064 261.742 260.393 262.41 260.725 263.083 260.772 263.757 260.533 264.43 260.285 265.101 259.833 265.597 259.178 265.92V265.92C258.528 266.241 257.86 266.292 257.175 266.074 256.48 265.852 255.973 265.417 255.653 264.767ZM251.183 237.697L250.83 237.252C250.764 237.168 250.773 237.093 250.856 237.027V237.027L251.208 236.749 256.258 232.575C256.852 232.062 257.512 231.519 258.236 230.946V230.946L260.238 229.362C262.093 227.894 263.543 226.861 264.587 226.263 265.632 225.666 266.674 225.103 267.715 224.576 268.765 224.05 270.06 223.716 271.6 223.574 273.146 223.427 274.662 223.528 276.15 223.877V223.877C279.308 224.632 281.807 226.173 283.646 228.497 285.486 230.822 286.526 233.384 286.768 236.185V236.185C287.138 240.241 285.991 243.992 283.328 247.438V247.438C282.477 248.527 281.497 249.511 280.387 250.389V250.389L268.73 259.614C268.647 259.68 268.572 259.671 268.506 259.587V259.587L268.147 259.134C268.081 259.051 268.09 258.976 268.173 258.91V258.91L268.525 258.632C270.464 257.097 270.945 255.712 269.967 254.477V254.477L256.102 236.957C255.628 236.358 255.045 236.086 254.352 236.143 253.654 236.204 253.016 236.463 252.437 236.921V236.921L251.413 237.731C251.33 237.797 251.253 237.786 251.183 237.697ZM262.464 228.833L258.117 232.273C257.851 232.484 257.832 232.732 258.059 233.019V233.019L273.526 252.564C274.153 253.356 275.219 253.182 276.723 252.042V252.042C277.17 251.706 277.632 251.348 278.112 250.969V250.969C281.515 248.275 283.434 245.206 283.869 241.76 284.303 238.314 283.267 235.006 280.759 231.837 278.247 228.663 275.302 226.79 271.924 226.216 268.552 225.639 265.398 226.511 262.464 228.833ZM297.908 234.772V234.772L297.443 234.429C297.357 234.365 297.348 234.288 297.415 234.197V234.197L297.681 233.836C297.988 233.353 298.315 232.871 298.661 232.391 299.011 231.906 299.275 231.424 299.455 230.945V230.945C299.856 229.853 299.532 228.921 298.484 228.147V228.147L281.195 215.392C280.114 214.595 278.953 214.725 277.71 215.782V215.782C277.367 216.091 277.033 216.41 276.707 216.739V216.739L276.452 217.084C276.385 217.175 276.306 217.187 276.215 217.12V217.12L275.822 216.83C275.737 216.767 275.728 216.69 275.795 216.599V216.599L287.301 201.003C287.447 200.805 287.586 200.689 287.719 200.655 287.861 200.619 288.06 200.679 288.317 200.835V200.835L293.287 204.056C293.394 204.135 293.388 204.255 293.27 204.415 293.148 204.581 293.011 204.666 292.859 204.67V204.67C292.7 204.651 292.235 204.441 291.466 204.039 290.701 203.631 289.991 203.396 289.335 203.334 288.67 203.273 288.023 203.539 287.395 204.133V204.133L282.347 210.976C282.24 211.121 282.259 211.246 282.403 211.353V211.353L290.883 217.609C290.99 217.688 291.085 217.671 291.168 217.559V217.559L295.353 211.887C296.434 210.421 296.121 209.059 294.415 207.8V207.8C294.33 207.737 294.32 207.66 294.388 207.569V207.569L294.678 207.176C294.741 207.091 294.815 207.079 294.901 207.142V207.142L301.929 212.327C302.014 212.391 302.025 212.465 301.962 212.55V212.55L301.672 212.944C301.605 213.034 301.529 213.048 301.443 212.985V212.985C299.823 211.79 298.539 211.57 297.593 212.326V212.326C297.336 212.54 297.099 212.795 296.882 213.089V213.089L292.733 218.713C292.65 218.825 292.662 218.921 292.769 219V219L300.759 224.895C301.578 225.499 302.323 225.462 302.996 224.786V224.786C303.186 224.595 303.369 224.38 303.547 224.139V224.139L307.578 218.676C308.41 217.547 308.558 216.306 308.021 214.951V214.951C307.641 213.977 307.029 213.1 306.184 212.32V212.32C305.903 212.063 305.87 211.787 306.087 211.493V211.493C306.186 211.359 306.305 211.344 306.444 211.446V211.446L311.553 216.058C311.661 216.237 311.681 216.372 311.614 216.462V216.462L298.137 234.73C298.07 234.821 297.994 234.835 297.908 234.772ZM300.507 170.429L300.961 170.61C301.066 170.652 301.099 170.722 301.06 170.821V170.821L300.779 171.525C300.453 173.256 301.294 174.958 303.303 176.633V176.633C303.826 177.078 304.329 177.522 304.811 177.964V177.964L321.937 193.418C322.205 193.661 322.338 193.875 322.336 194.06 322.331 194.252 322.271 194.492 322.155 194.783V194.783L321.8 195.672C321.679 195.974 321.463 196.113 321.151 196.089V196.089L292.99 196.423C291.836 196.427 290.827 197.18 289.963 198.682V198.682C289.916 198.763 289.88 198.835 289.856 198.897 289.834 198.952 289.77 198.959 289.665 198.917V198.917L289.211 198.736C289.113 198.697 289.084 198.625 289.126 198.52V198.52L293.582 187.352C293.622 187.254 293.691 187.224 293.79 187.263V187.263L294.243 187.444C294.348 187.486 294.381 187.557 294.342 187.655V187.655L294.227 187.942C294.151 188.277 294.055 188.661 293.939 189.094V189.094C293.498 190.793 293.82 191.859 294.906 192.293V192.293C295.246 192.428 295.646 192.484 296.106 192.46V192.46L316.425 192.249C316.727 192.227 316.773 192.095 316.561 191.853V191.853L301.358 178.143C301.139 177.956 300.857 177.793 300.512 177.655 300.166 177.517 299.775 177.529 299.338 177.691 298.901 177.853 298.599 178.072 298.431 178.349 298.257 178.623 298.125 178.839 298.034 178.996 297.94 179.159 297.798 179.399 297.607 179.716 297.416 180.033 297.297 180.251 297.25 180.368 297.205 180.479 297.131 180.514 297.026 180.472V180.472L296.572 180.291C296.473 180.251 296.444 180.182 296.483 180.084V180.084L300.3 170.518C300.34 170.419 300.409 170.39 300.507 170.429ZM68.098 144.925C68.098 143.106 69.573 141.631 71.392 141.631 73.211 141.631 74.686 143.106 74.686 144.925 74.686 146.744 73.211 148.219 71.392 148.219 69.573 148.219 68.098 146.744 68.098 144.925ZM319.342 144.925C319.342 143.106 320.816 141.631 322.636 141.631 324.455 141.631 325.93 143.106 325.93 144.925 325.93 146.744 324.455 148.219 322.636 148.219 320.816 148.219 319.342 146.744 319.342 144.925Z" fill="#124948" data-fill-palette-color="primary"></path></svg></g></svg></g></svg></g><g></g></svg></g><defs></defs></svg><rect width="395.52" height="280" fill="none" stroke="none" visibility="hidden"></rect></g></svg></g></svg>